<svg width="24" height="24" viewBox="0 0 24 24" fill="none" xmlns="http://www.w3.org/2000/svg">
<g clip-path="url(#clip0_105_3422)">
<path fill-rule="evenodd" clip-rule="evenodd" d="M0.156959 3.17196C0.268144 3.0621 0.418152 3.00049 0.574459 3.00049C0.730766 3.00049 0.880774 3.0621 0.991959 3.17196L9.82096 11.6C9.87733 11.6502 9.92244 11.7119 9.95332 11.7808C9.98421 11.8497 10.0002 11.9244 10.0002 12C10.0002 12.0755 9.98421 12.1502 9.95332 12.2191C9.92244 12.2881 9.87733 12.3497 9.82096 12.4L1.02096 20.828C0.909504 20.9372 0.759997 20.9988 0.603959 21C0.447836 20.9993 0.298177 20.9375 0.186959 20.828C0.130588 20.7777 0.085481 20.7161 0.0545959 20.6471C0.0237107 20.5782 0.00774466 20.5035 0.00774466 20.428C0.00774466 20.3524 0.0237107 20.2777 0.0545959 20.2088C0.085481 20.1399 0.130588 20.0782 0.186959 20.028L8.53796 11.999L0.154959 3.96996C0.0550187 3.8608 -0.000246539 3.71807 0.000123921 3.57007C0.00049438 3.42207 0.0564735 3.27962 0.156959 3.17096V3.17196ZM14.157 3.17196C14.2681 3.0621 14.4182 3.00049 14.5745 3.00049C14.7308 3.00049 14.8808 3.0621 14.992 3.17196L23.821 11.6C23.8773 11.6502 23.9224 11.7119 23.9533 11.7808C23.9842 11.8497 24.0002 11.9244 24.0002 12C24.0002 12.0755 23.9842 12.1502 23.9533 12.2191C23.9224 12.2881 23.8773 12.3497 23.821 12.4L15.021 20.828C14.9095 20.9372 14.76 20.9988 14.604 21C14.4478 20.9993 14.2982 20.9375 14.187 20.828C14.1306 20.7777 14.0855 20.7161 14.0546 20.6471C14.0237 20.5782 14.0077 20.5035 14.0077 20.428C14.0077 20.3524 14.0237 20.2777 14.0546 20.2088C14.0855 20.1399 14.1306 20.0782 14.187 20.028L22.538 11.999L14.155 3.96996C14.055 3.8608 13.9998 3.71807 14.0001 3.57007C14.0005 3.42207 14.0565 3.27962 14.157 3.17096V3.17196Z" fill="black"/>
</g>
<defs>
<clipPath id="clip0_105_3422">
<rect width="24" height="24" fill="white"/>
</clipPath>
</defs>
</svg>
